<svg width="392" height="278" viewBox="0 0 392 278" fill="none" xmlns="http://www.w3.org/2000/svg">
<ellipse cx="86" cy="167.133" rx="86" ry="85" fill="#76C7AC"/>
<path d="M168.852 116.302L339.037 49.5052L292.528 250.946L168.852 116.302Z" fill="#FF7F84"/>
<path d="M67.096 76.8931V102.093H100.936V118.077H67.096V144.717H105.256V161.133H46.936V60.477H105.256V76.8931H67.096ZM167.641 161.133L151.225 136.365L136.681 161.133H115.081L141.145 121.101L114.793 81.3571H137.545L153.817 105.981L168.505 81.3571H190.105L163.897 121.101L190.393 161.133H167.641ZM196.158 120.957C196.158 112.893 197.742 105.741 200.91 99.5011C204.174 93.2611 208.542 88.4611 214.014 85.1011C219.582 81.7411 225.774 80.0611 232.59 80.0611C238.542 80.0611 243.726 81.2611 248.142 83.661C252.654 86.0611 256.254 89.0851 258.942 92.7331V81.3571H279.246V161.133H258.942V149.469C256.35 153.213 252.75 156.333 248.142 158.829C243.63 161.229 238.398 162.429 232.446 162.429C225.726 162.429 219.582 160.701 214.014 157.245C208.542 153.789 204.174 148.941 200.91 142.701C197.742 136.365 196.158 129.117 196.158 120.957ZM258.942 121.245C258.942 116.349 257.982 112.173 256.062 108.717C254.142 105.165 251.55 102.477 248.286 100.653C245.022 98.7331 241.518 97.7731 237.774 97.7731C234.03 97.7731 230.574 98.6851 227.406 100.509C224.238 102.333 221.646 105.021 219.63 108.573C217.71 112.029 216.75 116.157 216.75 120.957C216.75 125.757 217.71 129.981 219.63 133.629C221.646 137.181 224.238 139.917 227.406 141.837C230.67 143.757 234.126 144.717 237.774 144.717C241.518 144.717 245.022 143.805 248.286 141.981C251.55 140.061 254.142 137.373 256.062 133.917C257.982 130.365 258.942 126.141 258.942 121.245Z" fill="#4433BD"/>
<path d="M214.633 152.205C224.425 152.205 232.297 155.229 238.249 161.277C244.297 167.229 247.321 175.581 247.321 186.333V233.133H227.161V189.069C227.161 182.829 225.577 178.077 222.409 174.813C219.241 171.453 214.921 169.773 209.449 169.773C203.977 169.773 199.609 171.453 196.345 174.813C193.177 178.077 191.593 182.829 191.593 189.069V233.133H171.433V189.069C171.433 182.829 169.849 178.077 166.681 174.813C163.513 171.453 159.193 169.773 153.721 169.773C148.153 169.773 143.737 171.453 140.473 174.813C137.305 178.077 135.721 182.829 135.721 189.069V233.133H115.561V153.357H135.721V163.005C138.313 159.645 141.625 157.005 145.657 155.085C149.785 153.165 154.297 152.205 159.193 152.205C165.433 152.205 171.001 153.549 175.897 156.237C180.793 158.829 184.585 162.573 187.273 167.469C189.865 162.861 193.609 159.165 198.505 156.381C203.497 153.597 208.873 152.205 214.633 152.205ZM296.98 234.429C290.452 234.429 284.596 233.277 279.412 230.973C274.228 228.573 270.1 225.357 267.028 221.325C264.052 217.293 262.42 212.829 262.132 207.933H282.436C282.82 211.005 284.308 213.549 286.9 215.565C289.588 217.581 292.9 218.589 296.836 218.589C300.676 218.589 303.652 217.821 305.764 216.285C307.972 214.749 309.076 212.781 309.076 210.381C309.076 207.789 307.732 205.869 305.044 204.621C302.452 203.277 298.276 201.837 292.516 200.301C286.564 198.861 281.668 197.373 277.828 195.837C274.084 194.301 270.82 191.949 268.036 188.781C265.348 185.613 264.004 181.341 264.004 175.965C264.004 171.549 265.252 167.517 267.748 163.869C270.34 160.221 273.988 157.341 278.692 155.229C283.492 153.117 289.108 152.061 295.54 152.061C305.044 152.061 312.628 154.461 318.292 159.261C323.956 163.965 327.076 170.349 327.652 178.413H308.356C308.068 175.245 306.724 172.749 304.324 170.925C302.02 169.005 298.9 168.045 294.964 168.045C291.316 168.045 288.484 168.717 286.468 170.061C284.548 171.405 283.588 173.277 283.588 175.677C283.588 178.365 284.932 180.429 287.62 181.869C290.308 183.213 294.484 184.605 300.148 186.045C305.908 187.485 310.66 188.973 314.404 190.509C318.148 192.045 321.364 194.445 324.052 197.709C326.836 200.877 328.276 205.101 328.372 210.381C328.372 214.989 327.076 219.117 324.484 222.765C321.988 226.413 318.34 229.293 313.54 231.405C308.836 233.421 303.316 234.429 296.98 234.429Z" fill="#3C2FBC"/>
</svg>
